<svg data-v-423bf9ae="" xmlns="http://www.w3.org/2000/svg" viewBox="0 0 469 90" class="iconLeft"><!----><!----><!----><g data-v-423bf9ae="" id="8e971675-5a33-42be-b5af-a12c58f3987b" fill="black" transform="matrix(6.054490506946714,0,0,6.054490506946714,102.91939423697141,10.761857849800698)"><path d="M1.68 1.57L1.68 3.58L0.21 3.58L0.21 4.16L1.68 4.16L1.68 8.37C1.68 9.73 2.16 10.60 3.63 10.60C4.06 10.60 4.49 10.46 4.93 10.25L4.69 9.69C4.34 9.86 3.96 9.97 3.63 9.97C2.55 9.97 2.35 9.31 2.35 8.37L2.35 4.16L4.70 4.16L4.70 3.58L2.35 3.58L2.35 1.50ZM6.97 3.56L6.97 10.50L6.29 10.50L6.29 3.56ZM6.09 1.33C6.09 2.06 7.20 2.06 7.20 1.33C7.20 0.60 6.09 0.60 6.09 1.33ZM14.14 9.07C13.58 9.63 12.82 9.93 12.08 9.93C10.51 9.93 9.20 8.90 9.20 7.04C9.20 5.18 10.51 4.16 12.08 4.16C12.82 4.16 13.59 4.42 14.15 4.98L14.60 4.55C13.90 3.86 12.99 3.51 12.08 3.51C10.08 3.51 8.53 4.86 8.53 7.04C8.53 9.23 10.14 10.57 12.08 10.57C12.99 10.57 13.90 10.23 14.60 9.53ZM16.00 0.70L16.00 10.50L16.67 10.50L16.67 7.11L20.38 10.50L21.25 10.50L21.25 10.46L17.35 6.85L20.85 3.61L20.85 3.58L19.94 3.58L16.67 6.61L16.67 0.70ZM22.18 6.45L27.08 6.45L27.08 5.73L22.18 5.73ZM31.95 4.13C33.54 4.13 34.78 5.31 34.78 7.03C34.78 8.75 33.57 9.94 31.95 9.94C30.39 9.94 29.12 8.96 29.12 7.04C29.12 5.10 30.39 4.13 31.95 4.13ZM34.79 0.70L34.79 5.10C34.23 3.98 33.11 3.47 31.92 3.47C29.99 3.47 28.45 4.76 28.45 7.04C28.45 9.34 29.97 10.61 31.91 10.61C33.08 10.61 34.22 10.02 34.79 8.97L34.79 10.50L35.46 10.50L35.46 0.70ZM40.63 10.60C42.57 10.60 44.14 9.25 44.14 7.06C44.14 4.86 42.57 3.46 40.63 3.46C38.68 3.46 37.11 4.86 37.11 7.06C37.11 9.25 38.68 10.60 40.63 10.60ZM40.63 9.93C39.06 9.93 37.79 8.85 37.79 7.06C37.79 5.26 39.06 4.10 40.63 4.10C42.20 4.10 43.47 5.26 43.47 7.06C43.47 8.85 42.20 9.93 40.63 9.93ZM45.72 3.58L45.72 10.50L46.41 10.50L46.41 6.65C46.41 5.22 47.40 4.14 48.83 4.13C50.33 4.12 51.30 4.96 51.30 6.52L51.30 10.50L51.98 10.50L51.98 6.51C51.98 4.59 50.71 3.46 48.86 3.46C47.89 3.47 46.93 3.86 46.40 4.82L46.40 3.58ZM56.90 10.60C58.00 10.60 59.21 10.15 59.88 9.27L59.39 8.88C58.87 9.56 57.81 9.93 56.90 9.93C55.47 9.93 54.22 8.99 54.08 7.36L60.31 7.36C60.58 4.66 58.84 3.47 56.90 3.47C54.95 3.47 53.38 4.97 53.38 7.04C53.38 9.24 54.95 10.60 56.90 10.60ZM54.08 6.76C54.24 5.07 55.47 4.10 56.90 4.10C58.56 4.10 59.68 5.05 59.70 6.76Z"></path></g><!----><g data-v-423bf9ae="" id="8f7dd924-14cd-4296-97b3-de13a74e1d35" transform="matrix(7.01590267526163,0,0,7.01590267526163,-13.127221402093042,-14.031806781034732)" stroke="none" fill="black"><path d="M4 4h8v1H4zM4 6h8v1H4zM4 8h8v1H4zM4 10h8v1H4z"></path><path d="M2 2v11h4.171L8 14.828 9.828 13H14V2H2zm11 10H3V3h10v9z"></path></g><!----></svg>