<svg data-v-423bf9ae="" xmlns="http://www.w3.org/2000/svg" viewBox="0 0 307.6072447248354 60" class="font"><!----><!----><!----><g data-v-423bf9ae="" id="fd9547f6-470e-4f78-b903-6de3feb0b5d4" fill="black" transform="matrix(5.71973320392212,0,0,5.71973320392212,-2.0591076089319245,-18.81792202271327)"><path d="M1.82 12.43C1.81 12.24 1.81 12.05 1.81 11.69L1.81 6.68L3.23 6.68L3.23 6.26L1.81 6.26L1.81 4.69L1.27 4.69L1.27 6.26L0.36 6.26L0.36 6.68L1.27 6.68L1.27 11.66C1.27 12.08 1.27 12.33 1.30 12.64C1.36 13.36 1.74 13.68 2.46 13.68C2.73 13.68 3.02 13.66 3.25 13.64L3.25 13.22C2.20 13.37 1.88 13.16 1.82 12.43ZM4.84 4.26C4.62 4.26 4.44 4.44 4.44 4.66C4.44 4.89 4.62 5.07 4.84 5.07C5.07 5.07 5.25 4.89 5.25 4.66C5.25 4.44 5.07 4.26 4.84 4.26ZM5.11 13.58L5.11 6.20L4.58 6.20L4.58 13.58ZM9.95 6.01C8.11 6.01 6.55 7.48 6.55 9.90C6.55 12.40 8.01 13.78 9.83 13.78C11.37 13.78 12.57 12.88 12.88 11.34L12.33 11.34C12.07 12.63 11.06 13.33 9.87 13.33C8.47 13.33 7.14 12.22 7.14 9.81C7.14 7.53 8.60 6.44 9.93 6.44C11.30 6.44 12.15 7.24 12.40 8.54L12.95 8.54C12.73 7.03 11.59 6.01 9.95 6.01ZM15.61 10.09L19.07 13.58L19.82 13.58L16.00 9.76L19.80 6.20L19.07 6.20L14.95 10.12L14.95 3.29L14.42 3.29L14.42 13.58L14.95 13.58L14.95 10.72ZM23.44 9.84L23.44 9.42L20.50 9.42L20.50 9.84ZM30.73 3.29L30.20 3.29L30.20 7.70L29.78 6.85C29.23 6.26 28.57 6.01 27.72 6.01C25.91 6.01 24.30 7.32 24.30 9.95C24.30 12.18 25.55 13.78 27.54 13.78C28.48 13.78 29.16 13.52 29.76 12.85L30.20 12.01L30.20 13.58L30.73 13.58ZM27.59 13.33C25.83 13.33 24.89 11.75 24.89 9.88C24.89 7.81 26.07 6.45 27.72 6.45C28.85 6.45 30.20 7.17 30.20 9.45L30.20 10.16C30.20 12.52 28.99 13.33 27.59 13.33ZM35.69 6.01C33.50 6.01 32.17 7.62 32.17 9.90C32.17 12.17 33.50 13.78 35.69 13.78C37.87 13.78 39.20 12.17 39.20 9.90C39.20 7.62 37.87 6.01 35.69 6.01ZM35.69 13.33C34.12 13.33 32.76 12.18 32.76 9.90C32.76 7.60 34.12 6.45 35.69 6.45C37.25 6.45 38.63 7.60 38.63 9.90C38.63 12.18 37.25 13.33 35.69 13.33ZM46.27 8.25C46.13 6.85 45.23 6.01 43.71 6.01C42.84 6.01 42.06 6.31 41.50 7.01L41.16 7.78L41.16 6.20L40.63 6.20L40.63 13.58L41.16 13.58L41.16 9.49C41.16 7.38 42.35 6.47 43.65 6.47C44.98 6.47 45.61 7.25 45.74 8.40C45.78 8.78 45.79 9.10 45.79 9.59L45.79 13.58L46.33 13.58L46.33 9.46C46.33 8.86 46.31 8.62 46.27 8.25ZM54.14 9.69C54.14 7.77 53.12 6.01 51.03 6.01C49.15 6.01 47.68 7.53 47.68 9.87C47.68 12.46 49.14 13.78 50.90 13.78C52.33 13.78 53.62 12.95 54.03 11.28L53.48 11.28C53.12 12.68 52.05 13.33 50.93 13.33C49.64 13.33 48.33 12.43 48.24 10.04L54.12 10.04C54.14 9.86 54.14 9.76 54.14 9.69ZM51.00 6.45C52.25 6.45 53.51 7.29 53.59 9.58L48.24 9.58C48.33 7.46 49.71 6.45 51.00 6.45Z"></path></g><!----><!----></svg>